<svg xmlns="http://www.w3.org/2000/svg" id="shark" enable-background="new 0 0 64 64" viewBox="0 0 64 64">
  <path fill="#2b2f64" d="M56.68,50.16c-1.96,0.34-6.09,1.47-9.1,5.13c-0.33,0.4-0.91,0.5-1.34,0.22c-3.92-2.48-8.03-5.72-8.71-10.96
		c-0.24-1.85-0.03-3.85,0.65-6.02c0.02-0.1,0.05-0.2,0.09-0.29c0,0,0.01-0.01,0.01-0.02c0.23-0.72,0.53-1.46,0.87-2.21
		c6.17-0.77,12.33,1.41,15.41,2.75c-1.24-2.8-3.51-6.76-9.95-11.48c0.45-0.58,0.92-1.16,1.42-1.75c1.04-1.26,2.18-2.56,3.42-3.89
		c0.82-0.89,1.68-1.78,2.51-2.59c1.02-1.02,3.19-3.68,1.39-6.37c-0.84-1.25-1.89-1.94-3.2-2.12c-3.74-0.51-8.21,3.28-8.25,3.32
		c-0.43,0.37-1.08,0.32-1.46-0.11c-0.37-0.43-0.32-1.08,0.11-1.46c0.21-0.18,5.2-4.44,9.86-3.81c1.41,0.19,2.63,0.79,3.64,1.8
		c0.74-1.63,0.74-3.2,0.65-4.09c-0.06-0.62,0.14-1.24,0.57-1.69C56.65,3,57.3,1.57,57.19,0.29c-0.01-0.14-0.17-0.27-0.33-0.28
		C50.71-0.27,27.51,3.2,22.85,24.86c-0.09,0.48-0.18,1.06-0.27,1.68c-5.88,2.69-14,7.22-15.78,19.57
		c5.23-5.78,12.25-8.74,15.26-8.62c0.02,0.26,0.03,0.52,0.05,0.78c0.45,5.43,2.01,11.23,6,15.47c5.58,5.96,13.05,6.7,18.05,6.35
		c0.3-0.01,0.61,0.1,0.83,0.33c1.49,1.59,4.57,4.03,9.24,3.51c-0.69-1.39-1.85-3.63-2.74-5.1c-0.26-0.41-0.19-0.96,0.18-1.29
		C53.77,57.43,56.31,54.97,56.68,50.16z M46.57,3.39c0.75,0,1.37,0.62,1.37,1.37c0,0.75-0.62,1.37-1.37,1.37
		c-0.75,0-1.37-0.62-1.37-1.37C45.2,4.01,45.81,3.39,46.57,3.39z"></path>
</svg>
