<svg xmlns="http://www.w3.org/2000/svg" xml:space="preserve" viewBox="0 0 48 48" id="animal">
  <symbol id="New_Symbol_14" viewBox="-6.5 -6.5 13 13">
    <path fill="#FFD4C3" stroke="#504B46" stroke-linecap="round" stroke-linejoin="round" stroke-miterlimit="10" d="M0-6c2.2 0 4.1 1.5 4.7 3.5C6.3-2.5 6.4 0 5 0v1c0 2.8-2.2 5-5 5s-5-2.2-5-5V0c-1.4 0-1.3-2.5.2-2.5C-4.1-4.5-2.2-6 0-6z" style="fill:#ffd4c3;stroke:#504b46;stroke-linecap:round;stroke-linejoin:round;stroke-miterlimit:10"></path>
    <circle cx="-1.6" cy="-.1" r=".1" style="fill:#ffc258"></circle>
    <path d="M-1.6.5c-.3 0-.6-.3-.6-.6s.2-.7.6-.7c.3 0 .6.3.6.7s-.3.6-.6.6z" style="fill:#4f4b45"></path>
    <circle cx="1.6" cy="-.1" r=".1" style="fill:#ffc258"></circle>
    <path d="M1.6.5C1.3.5 1 .2 1-.1s.3-.6.6-.6.6.3.6.6-.2.6-.6.6z" style="fill:#4f4b45"></path>
    <circle cx="-3" cy="-1.5" r=".5" style="fill:#fabfa5"></circle>
    <circle cx="3" cy="-1.5" r=".5" style="fill:#fabfa5"></circle>
    <path fill="none" stroke="#504B46" stroke-linecap="round" stroke-linejoin="round" stroke-miterlimit="10" d="M-1.2-3c.8-.5 1.7-.5 2.5 0" style="fill:none;stroke:#504b46;stroke-linecap:round;stroke-linejoin:round;stroke-miterlimit:10"></path>
  </symbol>
  <g id="Icons">
    <g id="XMLID_1958_">
      <path id="XMLID_2524_" fill="#6DD627" d="M17.7 36.9a6.38 6.38 0 0 0-1.5 5.3c1.7.1 3.6-.7 5-2.3 1.4-1.6 1.8-3.6 1.5-5.3-1.8-.1-3.7.7-5 2.3z" style="fill:#6dd627"></path>
      <path id="XMLID_2523_" fill="#46B000" d="M22.6 34.6c-1.7-.1-3.6.7-5 2.3-.3.4-.6.8-.8 1.2.9.9 2.3 1.7 4.2 1.9l.2-.2c1.3-1.6 1.8-3.6 1.4-5.2z" style="fill:#46b000"></path>
      <path id="XMLID_2522_" d="M17.7 36.9a6.38 6.38 0 0 0-1.5 5.3c1.7.1 3.6-.7 5-2.3 1.4-1.6 1.8-3.6 1.5-5.3-1.8-.1-3.7.7-5 2.3z" style="fill:none;stroke:#45413c;stroke-linecap:round;stroke-linejoin:round;stroke-miterlimit:10"></path>
      <path id="XMLID_2521_" d="M34.7 3c-4.4.7-6.9 5.3-5.9 9.5s5.2 7.1 9.5 6.1l1.1-2s1.4 2.9 2.4 2c1-.9 1.4-4.8 1.4-4.8s1.4 3.7 2.2 1.7c.8-1.9.4-5.6-.8-7.8C42.5 3.9 39 2.3 34.7 3z" style="fill:#bdbec0"></path>
      <path id="XMLID_2520_" d="M13.3 3c4.4.7 6.9 5.3 5.9 9.5s-5.2 7.1-9.5 6.1l-1.1-2s-1.4 2.9-2.4 2c-1-.9-1.4-4.8-1.4-4.8s-1.4 3.7-2.2 1.7c-.8-1.9-.4-5.6.8-7.8C5.6 3.9 9.1 2.3 13.3 3z" style="fill:#bdbec0"></path>
      <path id="XMLID_2519_" d="M34.7 6.1c4.2-.7 7.7.9 9.9 4.7.6 1 1 2.3 1.1 3.6.4-2-.1-4.9-1.1-6.7C42.5 3.9 39 2.3 34.7 3c-4.2.7-6.8 5.1-6 9.1.7-2.9 2.9-5.5 6-6z" style="fill:#e0e0e0"></path>
      <path id="XMLID_2518_" d="M3.4 10.8C5.6 7 9.1 5.4 13.3 6.1c3.2.5 5.4 3.1 6 6 .8-4.1-1.7-8.5-6-9.1-4.2-.7-7.7.9-9.9 4.7-1.1 1.8-1.5 4.7-1.1 6.7.2-1.3.6-2.6 1.1-3.6z" style="fill:#e0e0e0"></path>
      <path id="XMLID_2517_" d="M34.7 3c-4.4.7-6.9 5.3-5.9 9.5s5.2 7.1 9.5 6.1l1.1-2s1.4 2.9 2.4 2c1-.9 1.4-4.8 1.4-4.8s1.4 3.7 2.2 1.7c.8-1.9.4-5.6-.8-7.8C42.5 3.9 39 2.3 34.7 3z" style="fill:none;stroke:#45413c;stroke-linecap:round;stroke-linejoin:round;stroke-miterlimit:10"></path>
      <path id="XMLID_2516_" d="M13.3 3c4.4.7 6.9 5.3 5.9 9.5s-5.2 7.1-9.5 6.1l-1.1-2s-1.4 2.9-2.4 2c-1-.9-1.4-4.8-1.4-4.8s-1.4 3.7-2.2 1.7c-.8-1.9-.4-5.6.8-7.8C5.6 3.9 9.1 2.3 13.3 3z" style="fill:none;stroke:#45413c;stroke-linecap:round;stroke-linejoin:round;stroke-miterlimit:10"></path>
      <ellipse id="XMLID_2515_" cx="23.9" cy="43.5" fill="#45413C" opacity=".15" rx="12.8" ry="1.7" style="opacity:.15;fill:#45413c"></ellipse>
      <path id="XMLID_1120_" d="M38.3 20.9V18c0-7.1-6.4-12.9-14.4-12.9C16 5.1 9.5 10.9 9.5 18v2.9c-1.1 1.5-1.8 3.3-1.8 5.2 0 5 4 9.1 9.6 9.1h.3c.8 0 1.6.3 2.3.7 1.1.6 2.4 1 4 1 1.5 0 2.9-.4 4-1 .7-.4 1.5-.7 2.3-.7h.3c5.6 0 9.6-4.1 9.6-9.1 0-1.9-.7-3.7-1.8-5.2z" style="fill:#bdbec0"></path>
      <path id="XMLID_1119_" d="M38.3 20.9V18c0-7.1-6.4-12.9-14.4-12.9C16 5.1 9.5 10.9 9.5 18v3.6c0-7.1 6.4-12.9 14.4-12.9 7.9 0 14.4 5.8 14.4 12.9v-.7z" style="fill:#e0e0e0"></path>
      <path id="XMLID_1118_" d="M38.3 20.9V18c0-7.1-6.4-12.9-14.4-12.9C16 5.1 9.5 10.9 9.5 18v2.9c-1.1 1.5-1.8 3.3-1.8 5.2 0 5 4 9.1 9.6 9.1h.3c.8 0 1.6.3 2.3.7 1.1.6 2.4 1 4 1 1.5 0 2.9-.4 4-1 .7-.4 1.5-.7 2.3-.7h.3c5.6 0 9.6-4.1 9.6-9.1 0-1.9-.7-3.7-1.8-5.2z" style="fill:none;stroke:#45413c;stroke-linecap:round;stroke-linejoin:round;stroke-miterlimit:10"></path>
      <path id="XMLID_1117_" fill="#656769" stroke="#45413C" stroke-linecap="round" stroke-linejoin="round" stroke-miterlimit="10" d="M27.8 27c0 3.4-1.7 4.4-3.9 4.4S20 30.4 20 27c0-3.4 1.7-6.8 3.9-6.8s3.9 3.4 3.9 6.8z" style="fill:#656769;stroke:#45413c;stroke-linecap:round;stroke-linejoin:round;stroke-miterlimit:10"></path>
      <circle id="XMLID_1116_" cx="31.7" cy="20.2" r="1.7" style="fill:#45413c;stroke:#45413c;stroke-linecap:round;stroke-linejoin:round;stroke-miterlimit:10"></circle>
      <circle id="XMLID_1115_" cx="16.1" cy="20.2" r="1.7" style="fill:#45413c;stroke:#45413c;stroke-linecap:round;stroke-linejoin:round;stroke-miterlimit:10"></circle>
      <ellipse id="XMLID_1114_" cx="35.8" cy="27.7" rx="2" ry="1" style="fill:#fcd"></ellipse>
      <ellipse id="XMLID_1113_" cx="12" cy="27.7" rx="2" ry="1" style="fill:#fcd"></ellipse>
      <path id="XMLID_1112_" d="M18.2 35.3s2.2-.1 3.6-.7" style="fill:none;stroke:#45413c;stroke-linecap:round;stroke-linejoin:round;stroke-miterlimit:10"></path>
      <path id="XMLID_1111_" d="M30.5 35.2s-1.6-.1-3.3-.6" style="fill:none;stroke:#45413c;stroke-linecap:round;stroke-linejoin:round;stroke-miterlimit:10"></path>
      <path id="XMLID_1105_" d="M15.1 7.9s-3.6-1.9-6.6.3" style="fill:none;stroke:#45413c;stroke-linecap:round;stroke-linejoin:round;stroke-miterlimit:10"></path>
      <path id="XMLID_1104_" d="M33.1 7.9s3.6-1.9 6.6.3" style="fill:none;stroke:#45413c;stroke-linecap:round;stroke-linejoin:round;stroke-miterlimit:10"></path>
    </g>
  </g>
</svg>
