<svg xmlns="http://www.w3.org/2000/svg" width="512" height="512" fill-rule="evenodd" clip-rule="evenodd" image-rendering="optimizeQuality" shape-rendering="geometricPrecision" text-rendering="geometricPrecision" id="icon-pro">
  <g>
    <path fill="#d7dab9" d="M 233.5,-0.5 C 248.167,-0.5 262.833,-0.5 277.5,-0.5C 377.805,11.9821 449.305,63.9821 492,155.5C 502.297,180.687 508.797,206.687 511.5,233.5C 511.5,248.167 511.5,262.833 511.5,277.5C 499.018,377.805 447.018,449.305 355.5,492C 330.313,502.297 304.313,508.797 277.5,511.5C 262.833,511.5 248.167,511.5 233.5,511.5C 133.195,499.018 61.6947,447.018 19,355.5C 8.70332,330.313 2.20332,304.313 -0.5,277.5C -0.5,262.833 -0.5,248.167 -0.5,233.5C 11.9821,133.195 63.9821,61.6947 155.5,19C 180.687,8.70332 206.687,2.20332 233.5,-0.5 Z" opacity=".993"></path>
  </g>
  <g>
    <path fill="#be801b" d="M 354.5,211.5 C 351.218,216.534 347.551,221.368 343.5,226C 336.157,232 328.49,237.5 320.5,242.5C 316.158,241.625 311.824,241.959 307.5,243.5C 293.884,245.509 280.884,243.509 268.5,237.5C 264.307,234.145 259.807,231.145 255,228.5C 250.606,231.74 246.106,234.74 241.5,237.5C 229.471,243.616 216.805,245.616 203.5,243.5C 199.756,243.315 196.089,242.648 192.5,241.5C 191.584,241.543 190.917,241.876 190.5,242.5C 183.763,238.284 177.097,233.784 170.5,229C 164.642,223.404 159.642,217.238 155.5,210.5C 147.281,192.544 146.447,174.211 153,155.5C 155.27,150.902 157.937,146.569 161,142.5C 163.972,135.25 167.139,128.084 170.5,121C 161.35,106.586 159.184,91.0862 164,74.5C 170.352,58.0761 181.185,54.2428 196.5,63C 206.487,70.3211 214.321,79.4878 220,90.5C 224.398,89.1376 228.898,88.3042 233.5,88C 248.167,87.3333 262.833,87.3333 277.5,88C 281.921,88.4169 286.254,89.2502 290.5,90.5C 291.772,90.4302 292.938,90.0968 294,89.5C 300.796,73.1927 312.629,62.8594 329.5,58.5C 334.272,58.7007 338.439,60.3674 342,63.5C 350.142,74.8897 352.808,87.5564 350,101.5C 349.111,109.441 345.945,116.275 340.5,122C 344.107,128.152 346.941,134.652 349,141.5C 364.845,163.666 366.678,187 354.5,211.5 Z"></path>
  </g>
  <g>
    <path fill="#070502" d="M 213.5,127.5 C 221.885,127.368 227.385,131.368 230,139.5C 231.417,147.493 229.25,154.326 223.5,160C 214.515,163.257 208.348,160.424 205,151.5C 202.096,141.276 204.93,133.276 213.5,127.5 Z"></path>
  </g>
  <g>
    <path fill="#060402" d="M 295.5,127.5 C 303.993,127.156 309.16,131.156 311,139.5C 313.55,148.886 310.717,156.053 302.5,161C 293.064,162.249 287.564,158.082 286,148.5C 284.344,139.155 287.511,132.155 295.5,127.5 Z"></path>
  </g>
  <g>
    <path fill="#efefef" d="M 219.5,132.5 C 225.803,132.924 227.469,135.757 224.5,141C 217.421,141.527 215.754,138.694 219.5,132.5 Z"></path>
  </g>
  <g>
    <path fill="#f1f1f1" d="M 301.5,132.5 C 307.803,132.924 309.469,135.757 306.5,141C 299.416,141.475 297.749,138.642 301.5,132.5 Z"></path>
  </g>
  <g>
    <path fill="#b2751b" d="M 244.5,187.5 C 251.508,187.334 258.508,187.5 265.5,188C 271.437,188.729 276.937,190.563 282,193.5C 282.706,195.971 282.373,198.305 281,200.5C 273.538,209.631 265.705,218.464 257.5,227C 256.167,227.667 254.833,227.667 253.5,227C 244.585,218.089 236.418,208.589 229,198.5C 228.104,195.975 228.604,193.808 230.5,192C 235.311,190.552 239.977,189.052 244.5,187.5 Z"></path>
  </g>
  <g>
    <path fill="#af731b" d="M 155.5,210.5 C 159.642,217.238 164.642,223.404 170.5,229C 177.097,233.784 183.763,238.284 190.5,242.5C 204.877,259.577 215.377,278.91 222,300.5C 226.335,325.164 216.168,335.664 191.5,332C 185.577,330.859 179.91,329.025 174.5,326.5C 158.786,319.136 144.12,309.969 130.5,299C 128.859,297.871 127.859,296.371 127.5,294.5C 130.48,275.247 135.647,256.581 143,238.5C 147.476,229.222 151.643,219.889 155.5,210.5 Z"></path>
  </g>
  <g>
    <path fill="#af731b" d="M 354.5,211.5 C 369.106,237.312 378.773,264.979 383.5,294.5C 383.719,295.675 383.386,296.675 382.5,297.5C 369.353,308.473 355.019,317.64 339.5,325C 338.915,326.302 338.249,327.469 337.5,328.5C 337.53,327.503 337.03,326.836 336,326.5C 325.436,331.908 314.269,333.741 302.5,332C 294.581,329.343 290.081,323.843 289,315.5C 288.422,304.39 290.422,293.723 295,283.5C 302.509,269.134 311.009,255.467 320.5,242.5C 328.49,237.5 336.157,232 343.5,226C 347.551,221.368 351.218,216.534 354.5,211.5 Z"></path>
  </g>
  <g>
    <path fill="#e6dac9" d="M 268.5,237.5 C 268.666,241.846 268.499,246.179 268,250.5C 266.475,251.72 264.641,252.387 262.5,252.5C 258.849,253.265 256.516,251.932 255.5,248.5C 254.738,249.628 254.071,250.795 253.5,252C 250.167,252.667 246.833,252.667 243.5,252C 241.728,247.369 241.062,242.536 241.5,237.5C 246.106,234.74 250.606,231.74 255,228.5C 259.807,231.145 264.307,234.145 268.5,237.5 Z"></path>
  </g>
  <g>
    <path fill="#b0751f" d="M 241.5,237.5 C 241.062,242.536 241.728,247.369 243.5,252C 246.833,252.667 250.167,252.667 253.5,252C 254.071,250.795 254.738,249.628 255.5,248.5C 256.516,251.932 258.849,253.265 262.5,252.5C 264.641,252.387 266.475,251.72 268,250.5C 268.499,246.179 268.666,241.846 268.5,237.5C 280.884,243.509 293.884,245.509 307.5,243.5C 292.864,257.221 275.364,264.221 255,264.5C 235.02,264.016 217.853,257.016 203.5,243.5C 216.805,245.616 229.471,243.616 241.5,237.5 Z"></path>
  </g>
  <g>
    <path fill="#f3f3f2" d="M 203.5,243.5 C 217.853,257.016 235.02,264.016 255,264.5C 275.364,264.221 292.864,257.221 307.5,243.5C 311.824,241.959 316.158,241.625 320.5,242.5C 311.009,255.467 302.509,269.134 295,283.5C 290.422,293.723 288.422,304.39 289,315.5C 290.081,323.843 294.581,329.343 302.5,332C 314.269,333.741 325.436,331.908 336,326.5C 337.03,326.836 337.53,327.503 337.5,328.5C 332.933,358.569 315.6,376.402 285.5,382C 265.167,385.333 244.833,385.333 224.5,382C 197.158,376.656 180.324,360.489 174,333.5C 173.204,330.961 173.371,328.628 174.5,326.5C 179.91,329.025 185.577,330.859 191.5,332C 216.168,335.664 226.335,325.164 222,300.5C 215.377,278.91 204.877,259.577 190.5,242.5C 190.917,241.876 191.584,241.543 192.5,241.5C 196.089,242.648 199.756,243.315 203.5,243.5 Z"></path>
  </g>
  <g>
    <path fill="#ce8f20" d="M 127.5,294.5 C 127.859,296.371 128.859,297.871 130.5,299C 144.12,309.969 158.786,319.136 174.5,326.5C 173.371,328.628 173.204,330.961 174,333.5C 180.324,360.489 197.158,376.656 224.5,382C 244.833,385.333 265.167,385.333 285.5,382C 315.6,376.402 332.933,358.569 337.5,328.5C 338.249,327.469 338.915,326.302 339.5,325C 355.019,317.64 369.353,308.473 382.5,297.5C 383.386,296.675 383.719,295.675 383.5,294.5C 384.566,299.319 385.4,304.319 386,309.5C 388.973,334.645 385.973,358.978 377,382.5C 369.564,398.765 358.397,411.765 343.5,421.5C 333.647,419.472 323.647,418.972 313.5,420C 306.595,421.57 300.595,424.737 295.5,429.5C 293.218,432.254 292.885,435.254 294.5,438.5C 268.49,442.417 242.49,442.417 216.5,438.5C 219.196,435.103 219.029,431.77 216,428.5C 206.361,421.546 195.528,418.546 183.5,419.5C 178.005,419.321 172.671,419.988 167.5,421.5C 141.474,403.471 127.307,378.471 125,346.5C 124.333,334.167 124.333,321.833 125,309.5C 125.6,304.319 126.434,299.319 127.5,294.5 Z"></path>
  </g>
  <g>
    <path fill="#af731c" d="M 216.5,438.5 C 206.176,440.96 195.676,441.96 185,441.5C 175.375,441.844 165.875,441.011 156.5,439C 150.899,437.071 150.065,433.904 154,429.5C 157.813,425.677 162.313,423.01 167.5,421.5C 172.671,419.988 178.005,419.321 183.5,419.5C 195.528,418.546 206.361,421.546 216,428.5C 219.029,431.77 219.196,435.103 216.5,438.5 Z"></path>
  </g>
  <g>
    <path fill="#af731c" d="M 343.5,421.5 C 351.637,422.722 357.304,427.055 360.5,434.5C 360.41,436.425 359.41,437.592 357.5,438C 347.046,440.903 336.379,442.07 325.5,441.5C 314.997,441.923 304.664,440.923 294.5,438.5C 292.885,435.254 293.218,432.254 295.5,429.5C 300.595,424.737 306.595,421.57 313.5,420C 323.647,418.972 333.647,419.472 343.5,421.5 Z"></path>
  </g>
</svg>
