<svg xmlns="http://www.w3.org/2000/svg" xml:space="preserve" id="octopus" x="0" y="0" enable-background="new 0 0 128 128" version="1.1" viewBox="0 0 128 128">
  <path fill="#805c7e" d="M90.5,49l13.5,0c2.1,0,4.1-0.4,6-1.3c5.6-2.8,9-8.4,9-14.4v-1.7c0-4.2-1.7-8.3-4.7-11.3l-0.8-0.8
	c-2.9-2.9-6.9-4.6-11-4.6h-8.1c-4.1,0-8.1,1.6-11,4.6l-9,9c-1,1-2.2,1.5-3.6,1.5l-1.4,0c-1.1,0-2.2,0.2-3.2,0.6
	c-3.6,1.4-5.7,4.7-5.7,8.3v2.6c0,0.6-0.3,1.2-0.7,1.7L58.1,45c-0.5,0.6-1.3,1-2.1,1h-15c-2.5,0-5-1-6.8-2.8l-3-3
	c-1.6-1.6-2.8-3.8-3-6.1c-0.5-5.7,4-10,9.5-10H44c2.8,0,5-2.2,5-5v0c0-2.8-2.2-5-5-5l-5.6,0c-10.8,0-20.1,8.4-20.1,19.2
	c0,5.2,2.1,10.1,5.7,13.8l3.2,3.2c3.7,3.7,8.6,5.7,13.8,5.7l15,0H27.9c-4.1,0-8,1.6-10.9,4.5l-4.1,4.1c-2.7,2.7-4.5,6.2-4.7,10
	c-0.4,6.3,2.9,11.9,8.1,14.6c3.3,1.8,7.3-0.6,7.3-4.4c0-0.1,0-0.1,0-0.1c0-1.9-1.1-3.5-2.7-4.4c-2.1-1.2-3.3-3.8-2.4-6.6
	c0.3-0.7,0.7-1.3,1.2-1.9c1-1,3-3,4.4-4.4c1-1,2.4-1.6,3.8-1.6h24.6L39.3,79.1C36.4,82,34,87.7,34,91.8v7.8c0,3.7-2.7,6.4-6.1,6.4
	c-2.4,0-4.5-1.1-5.4-3.1c-0.8-1.6-2.4-2.6-4.2-2.6h-0.1c-3.8,0-6.2,4-4.5,7.3c2.8,5.5,8.7,9.2,15.5,8.7c8.5-0.6,14.9-7.9,14.9-16.4
	l0-8.9c0-1.6,0.6-3.1,1.8-4.3L60,72.5v5.9c0,1.8-0.7,3.6-2,4.9L54.3,87c-3.2,3.2-5.2,7.6-5.3,12.2c-0.1,9.4,7.6,17.1,16.9,17.1h0.3
	c2.4,0,4.4-2,4.4-4.4v-1.2c0-2.4-2-4.4-4.4-4.4h0c-3.8,0-7.1-3-7.2-6.8c0-1.9,0.7-3.7,2-5.1l3.9-3.9c1.6-1.6,3.2-3.1,4.1-5.1v0.8
	c-0.1,3.3,1.7,8.3,4.7,11.3l9.7,9.7c3,3,7.1,4.7,11.3,4.7h8.2c6.3,0,11.7-3.6,14.4-8.9c1.6-3.3-0.9-7.1-4.5-7.1h0
	c-1.9,0-3.6,1.1-4.5,2.8c-1,1.9-3,3.2-5.3,3.2h-8.2c-1.6,0-3.1-0.6-4.3-1.8l-9.7-9.7c-1.1-1.1-1.8-2.7-1.8-4.3V75.4l8.1,8.1
	c2.9,2.9,6.9,4.5,11,4.5h8.9c6.7,0,12.1-5.4,12.1-12.1v-3.4c0-6.4-5.2-11.6-11.6-11.6h-1.4c-2.8,0-5.2,2.3-5.2,5.2v0
	c0,2.8,2.2,5,5,5h0.4c1.5,0,2.8,1.2,2.8,2.8v1.4c0,1.5-1.2,2.7-2.8,2.7H98c-1.5,0-2.9-0.6-3.9-1.6l-4.9-4.9C87.6,70,87,67.8,87,65.6
	l0-13C87,50.6,88.6,49,90.5,49z"></path>
  <path fill="#e2c0b2" d="M83.4 107.3c3 3 7.1 4.7 11.3 4.7h8.2c6.3 0 11.7-3.6 14.4-8.9 1.6-3.3-.9-7.1-4.5-7.1-1.9 0-3.6 1.1-4.5 2.8-1 1.9-3 3.2-5.3 3.2h-8.2c-1.6 0-3.1-.6-4.3-1.8L81.3 91l0 0-6.8-6.8c-3.3-3.3-5.2-7.8-5.4-12.5v15.1c0 0-.1 1.4.8 4.3.8 2.3 2.1 4.7 3.8 6.5L83.4 107.3zM40.7 90.2L35.5 85c-1 2.3-1.5 4.8-1.5 6.8v7.8c0 3.7-2.7 6.4-6.1 6.4-2.4 0-4.5-1.1-5.4-3.1-.8-1.6-2.4-2.6-4.2-2.6h-.1c-3.8 0-6.2 4-4.5 7.3 2.8 5.5 8.7 9.2 15.5 8.7 8.5-.6 14.9-7.9 14.9-16.4v-1.6l0-.2C44 95.1 42.8 92.3 40.7 90.2zM48.8 49.4c-2.2-2.2-5.2-3.5-8.4-3.5l0 0c-2.3-.2-4.4-1.1-6.1-2.8l-3-3c-1.6-1.6-2.8-3.8-3-6.1-.5-5.7 4-10 9.5-10H44c2.8 0 5-2.2 5-5s-2.2-5-5-5h-5.6c-10.8 0-20.1 8.4-20.1 19.2 0 5.2 2.1 10.1 5.7 13.8l3.2 3.2c3.7 3.7 8.6 5.7 13.7 5.7h14.3L48.8 49.4z"></path>
  <path fill="none" stroke="#222652" stroke-miterlimit="10" stroke-width="2" d="M79,42c0,2.2-1.8,4-4,4s-4-1.8-4-4H79z"></path>
  <line x1="74.3" x2="67.2" y1="28.6" y2="35.7" fill="none" stroke="#222652" stroke-miterlimit="10" stroke-width="2"></line>
  <line x1="52.4" x2="57.6" y1="65.9" y2="60.7" fill="none" stroke="#222652" stroke-miterlimit="10" stroke-width="2"></line>
  <line x1="59.5" x2="68.6" y1="58.9" y2="49.7" fill="none" stroke="#222652" stroke-miterlimit="10" stroke-width="2"></line>
  <line x1="60" x2="60" y1="73" y2="69" fill="none" stroke="#222652" stroke-miterlimit="10" stroke-width="2"></line>
  <line x1="79" x2="79" y1="75" y2="61" fill="none" stroke="#222652" stroke-miterlimit="10" stroke-width="2"></line>
  <line x1="69" x2="69" y1="86.1" y2="66" fill="none" stroke="#222652" stroke-miterlimit="10" stroke-width="2"></line>
  <circle cx="76" cy="93" r="2" fill="none" stroke="#222652" stroke-miterlimit="10" stroke-width="2"></circle>
  <circle cx="39" cy="98" r="2" fill="none" stroke="#222652" stroke-miterlimit="10" stroke-width="2"></circle>
  <circle cx="35" cy="108" r="2" fill="none" stroke="#222652" stroke-miterlimit="10" stroke-width="2"></circle>
  <circle cx="26" cy="111" r="2" fill="none" stroke="#222652" stroke-miterlimit="10" stroke-width="2"></circle>
  <circle cx="18" cy="106" r="2" fill="none" stroke="#222652" stroke-miterlimit="10" stroke-width="2"></circle>
  <circle cx="84" cy="101" r="2" fill="none" stroke="#222652" stroke-miterlimit="10" stroke-width="2"></circle>
  <circle cx="93" cy="107" r="2" fill="none" stroke="#222652" stroke-miterlimit="10" stroke-width="2"></circle>
  <circle cx="104" cy="107" r="2" fill="none" stroke="#222652" stroke-miterlimit="10" stroke-width="2"></circle>
  <circle cx="112" cy="102" r="2" fill="none" stroke="#222652" stroke-miterlimit="10" stroke-width="2"></circle>
  <path fill="none" stroke="#222652" stroke-miterlimit="10" stroke-width="2" d="M40.5 45.9L40.5 45.9c3.1 0 6.2 1.2 8.4 3.5l6.5 6.5M69 71L69 71c0 4.9 2 9.6 5.4 13.1l6.8 6.8"></path>
  <line x1="110" x2="112" y1="24" y2="24" fill="none" stroke="#222652" stroke-miterlimit="10" stroke-width="2"></line>
  <line x1="110" x2="112" y1="34" y2="34" fill="none" stroke="#222652" stroke-miterlimit="10" stroke-width="2"></line>
  <line x1="104" x2="106" y1="34" y2="34" fill="none" stroke="#222652" stroke-miterlimit="10" stroke-width="2"></line>
  <line x1="104" x2="106" y1="44" y2="44" fill="none" stroke="#222652" stroke-miterlimit="10" stroke-width="2"></line>
  <line x1="107" x2="109" y1="29" y2="29" fill="none" stroke="#222652" stroke-miterlimit="10" stroke-width="2"></line>
  <line x1="107" x2="109" y1="39" y2="39" fill="none" stroke="#222652" stroke-miterlimit="10" stroke-width="2"></line>
  <line x1="101" x2="103" y1="39" y2="39" fill="none" stroke="#222652" stroke-miterlimit="10" stroke-width="2"></line>
  <line x1="95" x2="97" y1="39" y2="39" fill="none" stroke="#222652" stroke-miterlimit="10" stroke-width="2"></line>
  <line x1="101" x2="103" y1="29" y2="29" fill="none" stroke="#222652" stroke-miterlimit="10" stroke-width="2"></line>
  <line x1="98" x2="98" y1="78" y2="83" fill="none" stroke="#222652" stroke-miterlimit="10" stroke-width="2"></line>
  <line x1="107.8" x2="111.9" y1="77.7" y2="81.7" fill="none" stroke="#222652" stroke-miterlimit="10" stroke-width="2"></line>
  <line x1="113.3" x2="114.8" y1="83.2" y2="84.7" fill="none" stroke="#222652" stroke-miterlimit="10" stroke-width="2"></line>
  <line x1="104" x2="104" y1="78" y2="82" fill="none" stroke="#222652" stroke-miterlimit="10" stroke-width="2"></line>
  <line x1="104" x2="104" y1="84" y2="88" fill="none" stroke="#222652" stroke-miterlimit="10" stroke-width="2"></line>
  <path fill="none" stroke="#222652" stroke-miterlimit="10" stroke-width="2" d="M44,98.1c0-3-1.2-5.8-3.3-7.9l-5.2-5.2"></path>
  <circle cx="41" cy="51" r="2" fill="none" stroke="#222652" stroke-miterlimit="10" stroke-width="2"></circle>
  <circle cx="30.9" cy="47" r="2" fill="none" stroke="#222652" stroke-miterlimit="10" stroke-width="2"></circle>
  <circle cx="24" cy="38" r="2" fill="none" stroke="#222652" stroke-miterlimit="10" stroke-width="2"></circle>
  <circle cx="24" cy="28" r="2" fill="none" stroke="#222652" stroke-miterlimit="10" stroke-width="2"></circle>
  <circle cx="32" cy="20" r="2" fill="none" stroke="#222652" stroke-miterlimit="10" stroke-width="2"></circle>
  <circle cx="42" cy="19" r="2" fill="none" stroke="#222652" stroke-miterlimit="10" stroke-width="2"></circle>
</svg>
