<svg xmlns="http://www.w3.org/2000/svg" viewBox="0 0 64 64" id="sciuridae">
  <path fill="#a5a5a5" d="M56.48 19.07c-4.56-5.86-9.62-8.26-13.06-9.24-1.42-.41-2.98-.61-4.77-.61-.62 0-1.29.02-1.99.07-.23.02-.47.03-.69.03-1.89 0-3.52-.59-4.83-1.75-2.36-2.08-3.17-5.4-3.44-7.19L27.63 0l-.28.27c-4.28 4.04-2.87 12.98-2.33 15.63l.02.08.06.05c.85.63 1.64 1.4 2.34 2.29 1.58 2.01 3.2 3.63 4.79 4.82 1.63 1.22 3.65 1.91 5.83 2.01 14.98.66 18.18 17.84 18.8 23.09.17 1.46.18 2.66.03 3.78-.47 3.51-2.21 6.74-4.88 9.08l-.23.49c2.02-1.03 3.68-2.33 5.07-3.79 2.33-2.36 3.82-5.15 4.77-7.87 1.53-4.17 1.84-8.11 1.83-9.91-.01-7.77-2.49-15.21-6.97-20.95zm-43.27-4.8.16-.05-.01-.16c-.15-1.72-1.38-4.35-2.11-5.76l-.12-.23-.2.17c-2.34 2.05-3.19 6.41-3.48 8.82l-.06.49.39-.31c2.43-1.95 4.61-2.73 5.43-2.97z"></path>
  <path fill="#a5a5a5" d="M42.69 36.08c-7.57 0-13.74 6.26-13.74 13.96 0 7.7 6.16 13.96 13.74 13.96 6.84 0 12.69-5.19 13.6-12.07.15-1.08.13-2.24-.04-3.63-.6-5.13-3.69-21.92-18.23-22.56-2.3-.1-4.43-.84-6.16-2.13-1.65-1.23-3.3-2.89-4.91-4.93-1.48-1.89-3.35-3.19-5.39-3.77-.14-.04-.72-.19-1.17-.31l-.2-.05-.04.21c-.42 1.96-1.2 3.57-1.35 3.87a.313.313 0 0 1-.41.14.302.302 0 0 1-.13-.41c.1-.21 1.01-2.09 1.38-4.25.41-2.37.05-4.19-1.06-5.42l-.11-.12-.14.08c-.96.57-3.31 2.3-4.37 5.93-.25.83-.4 1.71-.48 2.69-.01.15-.15.28-.33.28a.346.346 0 0 1-.21-.1.303.303 0 0 1-.07-.23c.07-.78.16-1.41.3-1.97l.09-.36-.35.12c-2.25.79-9.77 4.26-12.32 15.87l-.02.1.07.08c.53.56 2.05 1.88 4.69 1.88 2.41 0 5.09-1.11 7.97-3.29.37-.28.81-.43 1.27-.43.48 0 .95.17 1.34.48.76.6 1 1.55.61 2.41l-3.27 6.88c-.05.11-.15.17-.27.17H3.77c-1.78 0-3.23 1.45-3.23 3.23s1.45 3.23 3.23 3.23h1.58c1.47 0 2.96.34 4.43 1.02 2.36 1.08 4.68 1.63 6.92 1.63 4.92 0 7.68-2.62 7.7-2.64a.31.31 0 0 1 .39-.04c.12.09.17.24.11.37-3.22 7.74 2.41 13.48 2.46 13.54.08.09.11.23.06.33-.05.12-.16.19-.28.19h-3.66c-1.1 0-2 .89-2 1.99s.9 1.99 2 1.99h14.51l-.48-.39c-5.47-2.16-9.15-7.61-9.15-13.57 0-8.03 6.43-14.57 14.34-14.57.17 0 .3.14.3.3 0 .17-.14.31-.31.31zM10.81 24.79c-.94 0-1.7-.76-1.7-1.7s.76-1.7 1.7-1.7 1.7.76 1.7 1.7c.01.94-.76 1.7-1.7 1.7z"></path>
  <path fill="#a5a5a5" d="M10.81 21.99c-.61 0-1.09.48-1.09 1.09 0 .6.49 1.09 1.09 1.09.6 0 1.09-.49 1.09-1.09.01-.59-.48-1.09-1.09-1.09z"></path>
</svg>
